<svg width="169" height="36" viewBox="0 0 169 36" fill="none" xmlns="http://www.w3.org/2000/svg">
<path d="M10.8234 31.9062L17.6203 0.875H21.675L23.8781 3.52344L16.6359 35H12.1594L10.8234 31.9062ZM9.01875 0.875L14.7609 32.1406L13.2844 35H8.10469L0.862503 0.875H9.01875ZM27.6047 31.9766L33.3 0.875H41.4328L34.1906 35H29.0344L27.6047 31.9766ZM24.6047 0.875L31.5656 32.0938L30.1594 35H25.6828L18.2766 3.47656L20.5734 0.875H24.6047ZM53.8894 0.875V35H45.6863V0.875H53.8894ZM68.385 0.875V35H60.1584V0.875H68.385ZM88.7522 0.875L75.5334 18.1719L67.7991 26.6328L66.2991 19.0859L71.2444 11.5859L78.6038 0.875H88.7522ZM79.0256 35L70.2131 19.625L76.6116 14.9141L88.7522 35H79.0256ZM100.084 0.875V35H91.8806V0.875H100.084ZM134.853 0.875V35H126.65L114.579 13.7656V35H106.353V0.875H114.579L126.65 22.1094V0.875H134.853ZM168.45 16.7656V30.7812C167.872 31.4219 166.981 32.1094 165.778 32.8438C164.591 33.5625 163.091 34.1797 161.278 34.6953C159.466 35.2109 157.333 35.4688 154.88 35.4688C152.614 35.4688 150.559 35.1094 148.716 34.3906C146.872 33.6562 145.286 32.5859 143.958 31.1797C142.645 29.7578 141.63 28.0234 140.911 25.9766C140.208 23.9141 139.856 21.5547 139.856 18.8984V17C139.856 14.3438 140.216 11.9844 140.934 9.92188C141.653 7.85938 142.661 6.125 143.958 4.71875C145.27 3.29687 146.809 2.21875 148.575 1.48438C150.356 0.75 152.309 0.382812 154.434 0.382812C157.575 0.382812 160.13 0.882812 162.098 1.88281C164.067 2.86719 165.559 4.23437 166.575 5.98438C167.591 7.71875 168.208 9.72656 168.427 12.0078H160.528C160.372 10.8828 160.075 9.92969 159.637 9.14844C159.216 8.35156 158.606 7.75 157.809 7.34375C157.012 6.92188 155.981 6.71094 154.716 6.71094C153.731 6.71094 152.833 6.92188 152.02 7.34375C151.223 7.76562 150.544 8.40625 149.981 9.26562C149.419 10.1094 148.981 11.1719 148.669 12.4531C148.372 13.7344 148.223 15.2344 148.223 16.9531V18.8984C148.223 20.6016 148.364 22.0938 148.645 23.375C148.942 24.6562 149.38 25.7266 149.958 26.5859C150.552 27.4297 151.302 28.0703 152.208 28.5078C153.13 28.9297 154.216 29.1406 155.466 29.1406C156.341 29.1406 157.091 29.0703 157.716 28.9297C158.341 28.7734 158.856 28.5859 159.262 28.3672C159.684 28.1328 160.005 27.9141 160.223 27.7109V22.4141H154.505V16.7656H168.45Z" fill="url(#paint0_linear_25_9)"/>
<defs>
<linearGradient id="paint0_linear_25_9" x1="95.5191" y1="19.2105" x2="94.0858" y2="16.1265" gradientUnits="userSpaceOnUse">
<stop stop-color="#988ACA"/>
<stop offset="0.63475" stop-color="white"/>
</linearGradient>
</defs>
</svg>
