<svg width="73" height="35" viewBox="0 0 73 35" fill="none" xmlns="http://www.w3.org/2000/svg">
<path d="M10.0256 31.9062L16.8225 0.875H20.8772L23.0803 3.52344L15.8381 35H11.3616L10.0256 31.9062ZM8.22094 0.875L13.9631 32.1406L12.4866 35H7.30687L0.0646858 0.875H8.22094ZM26.8069 31.9766L32.5022 0.875H40.635L33.3928 35H28.2366L26.8069 31.9766ZM23.8069 0.875L30.7678 32.0938L29.3616 35H24.885L17.4787 3.47656L19.7756 0.875H23.8069ZM52.5759 0.875V35H44.3494V0.875H52.5759ZM72.9431 0.875L59.7244 18.1719L51.99 26.6328L50.49 19.0859L55.4353 11.5859L62.7947 0.875H72.9431ZM63.2166 35L54.4041 19.625L60.8025 14.9141L72.9431 35H63.2166Z" fill="url(#paint0_linear_1_5)"/>
<defs>
<linearGradient id="paint0_linear_1_5" x1="39.7257" y1="19.2105" x2="37.8963" y2="17.7468" gradientUnits="userSpaceOnUse">
<stop stop-color="#988ACA"/>
<stop offset="0.63475"/>
</linearGradient>
</defs>
</svg>
